<?xml version="1.0" standalone="no"?>
<!DOCTYPE svg PUBLIC "-//W3C//DTD SVG 20010904//EN"
 "http://www.w3.org/TR/2001/REC-SVG-20010904/DTD/svg10.dtd">
<svg version="1.0" xmlns="http://www.w3.org/2000/svg"
 width="1280.000000pt" height="950.000000pt" viewBox="0 0 1280.000000 950.000000"
 preserveAspectRatio="xMidYMid meet">
<metadata>
Created by potrace 1.15, written by Peter Selinger 2001-2017
</metadata>
<g transform="translate(0.000000,950.000000) scale(0.100000,-0.100000)"
 stroke="none">
<path d="M555 8200 c-5 -8 -115 -502 -115 -516 0 -2 361 -5 803 -6 l802 -3
460 -1045 c253 -575 597 -1358 765 -1740 429 -977 370 -882 1165 -1878 l608
-762 2375 2 2375 3 73 225 c41 124 74 228 74 233 0 4 -1056 7 -2347 8 l-2348
0 -413 521 c-226 287 -410 523 -408 526 5 5 118 11 1841 102 314 17 651 35
750 40 99 6 518 28 930 50 1995 106 2282 121 2440 130 94 5 183 10 198 10 28
0 46 36 713 1377 l685 1377 -2 97 -1 97 -47 71 c-45 70 -47 71 -141 111 l-95
40 -4102 0 c-2257 0 -4103 -2 -4103 -5 0 -3 37 -107 81 -230 l81 -225 3909 0
c2150 0 3909 -2 3909 -5 0 -3 -51 -106 -112 -230 l-113 -225 -115 0 c-368 -1
-7182 -88 -7185 -92 -6 -6 151 -439 162 -448 4 -3 1455 13 3223 36 1768 24
3322 43 3452 43 l237 1 -112 -225 c-105 -212 -113 -225 -142 -229 -16 -3 -590
-21 -1275 -41 -685 -20 -2055 -60 -3045 -90 -990 -30 -1839 -55 -1887 -55 -68
0 -88 -3 -88 -14 0 -18 149 -429 160 -440 8 -8 456 5 4430 134 822 26 1496 47
1498 45 3 -3 -245 -436 -256 -447 -12 -12 -6154 -340 -6164 -330 -8 8 -125
270 -548 1227 -280 632 -411 928 -715 1615 -174 393 -362 817 -417 943 l-101
227 -898 0 c-595 0 -900 -3 -904 -10z"/>
<path d="M5238 1844 c-176 -42 -334 -190 -389 -363 -25 -77 -29 -230 -10 -301
38 -134 153 -282 268 -343 66 -35 191 -67 263 -67 77 0 200 33 269 72 114 65
216 195 255 327 21 72 21 221 0 292 -42 141 -147 272 -270 337 -113 59 -261
77 -386 46z"/>
<path d="M9370 1849 c-25 -5 -81 -26 -125 -48 -345 -171 -407 -627 -121 -889
346 -315 907 -66 906 403 0 152 -53 278 -160 385 -130 130 -314 185 -500 149z"/>
</g>
</svg>
